<svg width="17" height="21" viewBox="0 0 17 21" fill="none" xmlns="http://www.w3.org/2000/svg">
<path d="M4.25005 4.2C4.25005 1.8795 6.15192 0 8.50003 0C10.8482 0 12.75 1.8795 12.75 4.2C12.75 6.5205 10.8482 8.4 8.50003 8.4C6.15192 8.4 4.25005 6.5205 4.25005 4.2ZM13.8125 21H14.875C16.0438 21 17 20.055 17 18.9V13.881C17 12.705 16.3519 11.6235 15.2894 11.088C14.8325 10.857 14.3331 10.6365 13.8125 10.437V21ZM8.86128 15.75L11.6875 9.7965C10.6994 9.576 9.63691 9.45 8.50003 9.45C5.81192 9.45 3.49568 10.185 1.71069 11.088C1.19225 11.3519 0.757948 11.7526 0.455986 12.2456C0.154023 12.7386 -0.00378818 13.3047 6.90519e-05 13.881V21H2.48631C2.25256 20.5275 2.12506 19.992 2.12506 19.425C2.12506 17.3985 3.79318 15.75 5.8438 15.75H8.86128ZM6.37504 21L7.87316 17.85H5.8438C4.96192 17.85 4.25005 18.5535 4.25005 19.425C4.25005 20.2965 4.96192 21 5.8438 21H6.37504Z" fill="#FE4E4E"/>
</svg>
