<svg width="20" height="21" viewBox="0 0 20 21" fill="none" xmlns="http://www.w3.org/2000/svg">
<path d="M10 0C4.47715 0 0 4.70101 0 10.5C0 16.299 4.47715 21 10 21C13.7069 21 16.9398 18.8807 18.667 15.7346L15.1465 13.6082C14.1203 15.4771 12.2021 16.7382 10 16.7382C6.71878 16.7382 4.05883 13.9453 4.05883 10.5C4.05883 7.05472 6.71878 4.26177 10 4.26177C11.4065 4.26177 12.6955 4.77839 13.7122 5.63708L11.0864 7.59815L20 10.7192V0.938227L17.0972 3.10693C15.2854 1.18916 12.7759 0 10 0Z" fill="#6ABA3A"/>
</svg>
