<svg width="29" height="28" viewBox="0 0 29 28" fill="none" xmlns="http://www.w3.org/2000/svg">
<mask id="mask0_332_272" style="mask-type:alpha" maskUnits="userSpaceOnUse" x="0" y="0" width="29" height="28">
<mask id="path-1-inside-1_332_272" fill="white">
<path d="M12.3298 22.4C13.3448 18.725 16.8938 16.1 20.9818 16.534C24.8738 16.947 27.9678 20.23 28.1638 24.136C28.2128 25.165 28.0728 26.152 27.7718 27.069C27.5898 27.629 27.0438 28 26.4488 28H5.60145C2.06785 28 -0.582355 24.7667 0.110645 21.3017L4.37085 0H12.7708L15.5708 4.9L9.57185 9.191L7.87085 7"/>
</mask>
<path d="M12.3298 22.4C13.3448 18.725 16.8938 16.1 20.9818 16.534C24.8738 16.947 27.9678 20.23 28.1638 24.136C28.2128 25.165 28.0728 26.152 27.7718 27.069C27.5898 27.629 27.0438 28 26.4488 28H5.60145C2.06785 28 -0.582355 24.7667 0.110645 21.3017L4.37085 0H12.7708L15.5708 4.9L9.57185 9.191L7.87085 7" fill="#555555"/>
<path d="M9.43811 21.6013C8.99702 23.1984 9.93412 24.8506 11.5312 25.2917C13.1282 25.7328 14.7805 24.7957 15.2216 23.1987L9.43811 21.6013ZM20.9818 16.534L20.6651 19.5172L20.6653 19.5173L20.9818 16.534ZM28.1638 24.136L31.1605 23.9933L31.1601 23.9857L28.1638 24.136ZM27.7718 27.069L24.9215 26.1334L24.9187 26.1417L27.7718 27.069ZM0.110645 21.3017L3.05239 21.89L3.05239 21.89L0.110645 21.3017ZM4.37085 0V-3H1.91142L1.4291 -0.58833L4.37085 0ZM12.7708 0L15.3756 -1.48842L14.5118 -3H12.7708V0ZM15.5708 4.9L17.3162 7.34005L19.5197 5.76387L18.1756 3.41158L15.5708 4.9ZM9.57185 9.191L7.20216 11.0307L8.97106 13.3092L11.3172 11.631L9.57185 9.191ZM10.2405 5.16027C9.22448 3.85153 7.33986 3.61426 6.03112 4.63031C4.72238 5.64637 4.48511 7.53098 5.50116 8.83972L10.2405 5.16027ZM15.2216 23.1987C15.8601 20.8869 18.09 19.2439 20.6651 19.5172L21.2986 13.5508C15.6977 12.9562 10.8296 16.5631 9.43811 21.6013L15.2216 23.1987ZM20.6653 19.5173C23.0833 19.7738 25.0454 21.8504 25.1676 24.2863L31.1601 23.9857C30.8903 18.6096 26.6644 14.1202 21.2984 13.5507L20.6653 19.5173ZM25.1672 24.2787C25.1988 24.9419 25.1085 25.5635 24.9215 26.1334L30.6222 28.0046C31.0372 26.7405 31.2269 25.3881 31.1604 23.9933L25.1672 24.2787ZM24.9187 26.1417C25.1683 25.3739 25.8436 25 26.4488 25V31C28.2441 31 30.0114 29.8841 30.6249 27.9963L24.9187 26.1417ZM26.4488 25H5.60145V31H26.4488V25ZM5.60145 25C3.96135 25 2.73059 23.499 3.05239 21.89L-2.8311 20.7134C-3.8953 26.0344 0.174341 31 5.60145 31V25ZM3.05239 21.89L7.31259 0.58833L1.4291 -0.58833L-2.8311 20.7134L3.05239 21.89ZM4.37085 3H12.7708V-3H4.37085V3ZM10.1661 1.48842L12.9661 6.38842L18.1756 3.41158L15.3756 -1.48842L10.1661 1.48842ZM13.8255 2.45995L7.82652 6.75095L11.3172 11.631L17.3162 7.34005L13.8255 2.45995ZM11.9415 7.35127L10.2405 5.16027L5.50116 8.83972L7.20216 11.0307L11.9415 7.35127Z" fill="#2B3A7E" mask="url(#path-1-inside-1_332_272)"/>
</mask>
<g mask="url(#mask0_332_272)">
<path d="M-2.60205 -2.80371H36.0453V35.8437H-2.60205V-2.80371Z" fill="#7F8D72" stroke="#2B3A7E"/>
<path d="M9.57885 9.191L12.7708 21M12.3298 22.4C13.3448 18.725 16.8938 16.1 20.9818 16.534C24.8738 16.947 27.9678 20.23 28.1638 24.136C28.2128 25.165 28.0728 26.152 27.7718 27.069C27.5898 27.629 27.0438 28 26.4488 28H5.60145C2.06785 28 -0.582355 24.7667 0.110645 21.3017L4.37085 0H12.7708L15.5708 4.9L9.57185 9.191L7.87085 7L12.3298 22.4Z" stroke="#EDE7C8" stroke-width="3" stroke-miterlimit="2" stroke-linecap="round" stroke-linejoin="round"/>
</g>
</svg>
