<svg width="25" height="25" viewBox="0 0 25 25" fill="none" xmlns="http://www.w3.org/2000/svg">
<path d="M12.5006 7.8125C9.91747 7.8125 7.81288 9.91699 7.81288 12.5C7.81288 15.083 9.91747 17.1875 12.5006 17.1875C15.0837 17.1875 17.1883 15.083 17.1883 12.5C17.1883 9.91699 15.0837 7.8125 12.5006 7.8125ZM24.5324 11.7432L19.9082 9.43359L21.544 4.53125C21.7638 3.86719 21.1338 3.2373 20.4746 3.46191L15.572 5.09766L13.2575 0.46875C12.945 -0.15625 12.0562 -0.15625 11.7437 0.46875L9.43405 5.09277L4.52659 3.45703C3.86249 3.2373 3.23258 3.86719 3.4572 4.52637L5.09302 9.42871L0.468773 11.7432C-0.156258 12.0557 -0.156258 12.9443 0.468773 13.2568L5.09302 15.5664L3.4572 20.4736C3.23746 21.1377 3.86738 21.7676 4.52659 21.543L9.42917 19.9072L11.7389 24.5312C12.0514 25.1562 12.9401 25.1562 13.2526 24.5312L15.5623 19.9072L20.4649 21.543C21.129 21.7627 21.7589 21.1328 21.5342 20.4736L19.8984 15.5713L24.5227 13.2617C25.1575 12.9443 25.1575 12.0557 24.5324 11.7432ZM16.9198 16.9189C14.4831 19.3555 10.5181 19.3555 8.08145 16.9189C5.64481 14.4824 5.64481 10.5176 8.08145 8.08105C10.5181 5.64453 14.4831 5.64453 16.9198 8.08105C19.3564 10.5176 19.3564 14.4824 16.9198 16.9189Z" fill="#FDD400"/>
</svg>
