<svg width="34" height="37" viewBox="0 0 34 37" fill="none" xmlns="http://www.w3.org/2000/svg">
<path d="M15.814 2.7124L14.7015 5.53116L16.1109 6.08737L8.32401 25.8187C7.73395 27.3138 7.76201 28.9822 8.40201 30.4566C9.04201 31.9311 10.2415 33.091 11.7367 33.681C13.2319 34.2711 14.9002 34.243 16.3747 33.603C17.8491 32.963 19.009 31.7635 19.599 30.2683L27.386 10.537L28.7953 11.0932L29.9078 8.27448L15.814 2.7124ZM13.6646 24.6685C12.8189 24.3348 12.4777 23.5486 12.8114 22.703C13.1451 21.8573 13.9314 21.5161 14.777 21.8498C15.6226 22.1835 15.9639 22.9697 15.6302 23.8154C15.2964 24.661 14.5102 25.0023 13.6646 24.6685ZM18.7082 20.1434C17.8625 19.8097 17.5213 19.0235 17.855 18.1779C18.1887 17.3322 18.9749 16.991 19.8206 17.3247C20.6662 17.6584 21.0075 18.4446 20.6737 19.2903C20.34 20.1359 19.5538 20.4772 18.7082 20.1434ZM22.8986 13.6528L17.2611 11.4279L18.9297 7.19978L24.5672 9.42462L22.8986 13.6528Z" fill="#FDD400"/>
</svg>
